<svg id="Layer_1" data-name="Layer 1" xmlns="http://www.w3.org/2000/svg" viewBox="0 0 250 74">
    <title>BIGonDRY Srl Logo</title>
    <style>
        .cls-1 { fill: gray; }
        .cls-2 { fill: rgb(114, 15, 60); }
    </style>
    <path class="cls-1" d="M32.22,70.87V65.73l.19-.57.07-4.57.23-.68,0-3.91,0-.74c.18-2.71.36-5.42.51-8.14a2.19,2.19,0,0,0-.26-.75c.13-.42.92-.64.29-1.45L16.69,64.7A31.91,31.91,0,0,1,8.8,56.89l3.84-3.3.54-.53a10.75,10.75,0,0,0,3.33-3l.5-.49a16.14,16.14,0,0,0,1.52-.93c.56-.43,1.05-.93,1.57-1.4l.55-.53q3.17-2.67,6.34-5.35a5.93,5.93,0,0,0,.64-.75c.31-.1.86.09.66-.8L2.61,41.49a28.37,28.37,0,0,1,0-9.77l5.22,0,.54-.08A6.19,6.19,0,0,0,9.67,32c1.08.06,2.16,0,3.23,0h.71l3.87.28h.79l9.75.56.64,0c0-.21,0-.51-.13-.62-1-.91-2-1.79-3-2.66L10.71,17c-.46-.39-.89-.83-1.37-1.28.58-.75,1-1.42,1.59-2a25,25,0,0,1,5.6-5.1c.55.56,1.08,1.13,1.64,1.68s1.28,1.23,1.91,1.84c-.07.42.12.59.53.53a6.93,6.93,0,0,0,3,3.3c-.11.33-.27.68.33.65l2.47,3,.53.54c.6.79,1.17,1.61,1.82,2.37,1.44,1.7,2.93,3.38,4.47,5.16,0-1.91,0-3.66,0-5.4,0-.43-.12-.85-.14-1.28-.21-4.35-.4-8.71-.63-13.06-.11-2-.29-4-.44-6.07,1.58-.71,3.25-.36,5-.45V29.3a13,13,0,0,0,1.39.38A7.09,7.09,0,0,1,43.1,40.49a2,2,0,0,1-1,.74c1.3-2.15,2.05-4.32,1.11-6.76A6.63,6.63,0,0,0,40.32,31a6.54,6.54,0,0,0-8.3,1.6A6.32,6.32,0,0,0,32.25,41c2.06,2.51,5.4,2.7,9.32.57-.21,1.12-1.15,1.64-4.47,2.37V71.24Z"></path>
    <path class="cls-2" d="M62.31,12.34c12.5,12,13.88,35.15-.7,49.19a9.1,9.1,0,0,0-1.13-5.57,51.84,51.84,0,0,0-2.82-4.67,45,45,0,0,0-10.39-10.1l-1-.78A2.06,2.06,0,0,1,46,40c.56.1,1,.16,1.36.25a38,38,0,0,0,19.5-.18A22.42,22.42,0,0,0,70,38.86a3.31,3.31,0,0,0,.94-.66c1.69-1.66,1.65-2.44-.05-3.87a10,10,0,0,0-3.29-1.71,32.55,32.55,0,0,0-13.8-1.32c-2,.22-4,.63-6,.94a4.69,4.69,0,0,1-1.35,0A46.47,46.47,0,0,0,58,22.18,39.08,39.08,0,0,0,61.44,17,6.07,6.07,0,0,0,62.31,12.34Z"></path>
    <path class="cls-2" d="M32.22,70.87l4.88.37c.64.48,1-.08,1.29-.43A13.33,13.33,0,0,0,40,68.1a28.09,28.09,0,0,0,1.82-10.29A42.29,42.29,0,0,0,40.6,46.55c0-.11.07-.25.2-.67.32.51.55.83.74,1.17A39,39,0,0,0,53.46,60.14a21.13,21.13,0,0,0,4.08,2.1,13.93,13.93,0,0,0,2.91.5,35.54,35.54,0,0,1-19.38,8.77,33.19,33.19,0,0,1-17.6-2.22c.46-.75.87-.32,1.21-.21A29.93,29.93,0,0,0,32.22,70.87Z"></path>
    <path class="cls-2" d="M61.52,11.27c-3.7-.24-6.43,1.36-9.05,3.13A39.25,39.25,0,0,0,41.62,25.2a2.93,2.93,0,0,1-.8.79,40.49,40.49,0,0,0-.26-19.5A8.57,8.57,0,0,0,37.3,1.31,35.53,35.53,0,0,1,61.52,11.27Z"></path>
    <path class="cls-2" d="M2.62,31.72a28.37,28.37,0,0,0,0,9.77L28.3,39.82c.2.89-.35.71-.66.8L16,41.33,2,42.25A34.66,34.66,0,0,1,4.27,22.83c.75.25.44.61.34,1q-1,3.53-1.93,7.06A4.43,4.43,0,0,0,2.62,31.72Z"></path>
    <path class="cls-2" d="M8.8,56.89a31.91,31.91,0,0,0,7.89,7.81L33.33,44.92c.63.81-.16,1-.29,1.45L16.86,65.58C12.05,62.94,4.71,53.84,4.79,50.33c.18.26.38.51.54.78Z"></path>
    <path class="cls-2" d="M16.53,8.61a25,25,0,0,0-5.6,5.1c-.55.6-1,1.27-1.59,2,.48.45.91.88,1.37,1.28l14.8,12.6c1,.87,2,1.76,3,2.66.13.12.09.41.13.62l-.64,0c-2.42-2.11-4.82-4.24-7.25-6.33q-6-5.16-12-10.28a2.92,2.92,0,0,1-.27-.31c2.9-5.24,12.21-12,15.48-12a10.11,10.11,0,0,1-.86.64c-1.83,1-3.67,2.06-5.49,3.12A7.29,7.29,0,0,0,16.53,8.61Z"></path>
    <path class="cls-2" d="M32.41,65.16l-.19.57c-2.77-.33-5.34-1.17-6-2.22l1.89.55c.74.21,1.48.42,2.22.61S31.71,65,32.41,65.16Z"></path>
    <path class="cls-2" d="M8.38,31.62l-.54.08a13.74,13.74,0,0,1,2-6.31c.48.78-.18,1.34-.32,2s-.44,1.46-.64,2.2S8.54,30.92,8.38,31.62Z"></path>
    <path class="cls-2" d="M20.62,12.67c-.41.05-.6-.11-.53-.53a21.24,21.24,0,0,1,5.51-2.91l.22.41c-.88.47-1.79.91-2.65,1.42S21.46,12.13,20.62,12.67Z"></path>
    <path class="cls-2" d="M13.19,53.07l-.54.53a25.45,25.45,0,0,1-3-5.63c.68-.27.73.2.9.5Z"></path>
    <path class="cls-2" d="M13.61,32h-.71a16.61,16.61,0,0,1,1.48-4.47c.58,1.1-.12,1.7-.24,2.38S13.8,31.32,13.61,32Z"></path>
    <path class="cls-2" d="M32.72,59.91l-.23.68a9.34,9.34,0,0,1-4-1.53C30,59,31.27,59.79,32.72,59.91Z"></path>
    <path class="cls-2" d="M23.94,16.62c-.6,0-.44-.32-.33-.65a15.63,15.63,0,0,1,3.66-1.82l.21.4Z"></path>
    <path class="cls-2" d="M17,49.59l-.5.49a16.42,16.42,0,0,1-2-4.06c1.11.31,1,1.17,1.41,1.71S16.67,49,17,49.59Z"></path>
    <path class="cls-2" d="M26.95,20.15l-.53-.54c.62-.33,1.23-.69,1.87-1,.17-.08.44.06,1,.16Z"></path>
    <path class="cls-2" d="M32.79,55.26l0,.74c-.79-.29-1.72-.28-2.46-1.11C31.31,54.56,32,55.24,32.79,55.26Z"></path>
    <path class="cls-2" d="M20.66,46.72l-.55.53c-.36-.81-1-1.51-1-2.64C20.13,45.06,20.07,46.14,20.66,46.72Z"></path>
    <path class="cls-2" d="M18.27,32.3h-.79c.33-.78.33-1.73,1.15-2.47C19,30.82,18.25,31.51,18.27,32.3Z"></path>
    <path class="cls-2" d="M131.46,40.19h-5.7V35H138c.86,7.89-3.82,14.61-11.86,14.85a14,14,0,0,1-8.62-2.27,12.76,12.76,0,0,1-5.67-12.19c.91-12,13-14.94,20.12-11.18a12.22,12.22,0,0,1,5,5,4.63,4.63,0,0,1-.53.4l-4.52,2.41a6.94,6.94,0,0,1-.52-.66c-2.76-4.54-9.81-4.18-12.43.66a8.59,8.59,0,0,0-.3,8,7.48,7.48,0,0,0,9.18,4A5.17,5.17,0,0,0,131.46,40.19Z"></path>
    <path class="cls-2" d="M182.9,23.25c4.07.24,8.11-.46,12.07.64,6.24,1.72,9.78,6.75,9.42,13.39a12.79,12.79,0,0,1-10.77,11.8,16.16,16.16,0,0,1-2.43.23c-2.73,0-5.47,0-8.29,0Zm5.9,20.83c3.45,0,6.61-.34,8.45-3.63a7.81,7.81,0,0,0-.38-8.83c-2-2.81-4.88-3.22-8.07-3Z"></path>
    <path class="cls-2" d="M213.82,40v9.25H208V23.41a5.21,5.21,0,0,1,.69-.09c2.5,0,5-.05,7.49,0a14.36,14.36,0,0,1,3.4.5c4.19,1.17,5.87,4.55,5.45,8.49a6.81,6.81,0,0,1-4.48,6c-.21.08-.41.2-.73.35l7.94,10.64c-2.52,0-4.71,0-6.9,0-.35,0-.76-.5-1-.87-1.71-2.49-3.39-5-5.08-7.52-.21-.31-.43-.62-.65-.93Zm.08-5.15c1.81-.06,3.55.05,4.6-1.61a3,3,0,0,0,0-3.52c-1.12-1.58-2.82-1.49-4.57-1.41Z"></path>
    <path class="cls-2" d="M81.24,49.34v-26c3.47.14,6.92-.36,10.32.37a6.68,6.68,0,0,1,5.11,7.59A6.09,6.09,0,0,1,95,35.13c0,.08,0,.21.09.24,3.19,1.37,4.31,4.23,3.89,7.43A7,7,0,0,1,92.89,49a14.48,14.48,0,0,1-2.57.28c-2.74,0-5.47,0-8.21,0Zm5.85-4.84A35.86,35.86,0,0,0,91,44a2.44,2.44,0,0,0,2-2.63,2.47,2.47,0,0,0-2-2.63,37.75,37.75,0,0,0-3.89-.42Zm0-10.81c1.57.07,3,.15,3.8-1.35a2.73,2.73,0,0,0-.26-3.11c-.94-1.09-2.22-1.07-3.53-.86Z"></path>
    <path class="cls-2" d="M239.84,49.27H234V44.78c0-2,0-4,0-6a3.65,3.65,0,0,0-.62-2.15c-2.58-4-5.12-8-7.66-12-.22-.35-.41-.72-.67-1.19h6.92L237,31.48c1.53-2.52,3-4.88,4.41-7.28A1.56,1.56,0,0,1,243,23.3c1.91.06,3.82,0,6,0-.39.63-.64,1.07-.92,1.5-2.53,3.91-5,7.82-7.6,11.71a3.86,3.86,0,0,0-.65,2.28C239.86,42.26,239.84,45.71,239.84,49.27Z"></path>
    <path class="cls-1" d="M149.76,49.31a8.8,8.8,0,0,1-6.23-2.12c-3-2.54-3.54-5.79-2.47-9.38a7.46,7.46,0,0,1,4.79-5c3.77-1.41,7.33-1.13,10.52,1.46a7.24,7.24,0,0,1,2.72,5.33,8.42,8.42,0,0,1-8.18,9.7C150.53,49.34,150.14,49.31,149.76,49.31Zm4.7-8.66a4.46,4.46,0,0,0-4.6-4.52,4.6,4.6,0,0,0-4.56,4.6,4.58,4.58,0,0,0,9.17-.08Z"></path>
    <path class="cls-1" d="M162.66,32.66h4.43l.14,1.61.91-.77a6.7,6.7,0,0,1,7.52-.62,5.26,5.26,0,0,1,2.68,4.91c.1,3.59,0,7.18,0,10.88h-4.54c0-.51-.06-1-.06-1.44,0-2.4,0-4.8,0-7.2a6.6,6.6,0,0,0-.09-1.28c-.48-2.34-1.86-3.26-4.15-2.62A2.55,2.55,0,0,0,168,37.3a9,9,0,0,0-.81,3.14c-.12,2.25,0,4.51,0,6.76,0,.47,0,.94,0,1.48h-4.51Z"></path>
    <path class="cls-2" d="M108.3,49.28h-5.72V23.42h5.72Z"></path>
</svg>
